<?xml version="1.0" standalone="no"?>
<!DOCTYPE svg PUBLIC "-//W3C//DTD SVG 20010904//EN"
 "http://www.w3.org/TR/2001/REC-SVG-20010904/DTD/svg10.dtd">
<svg version="1.0" xmlns="http://www.w3.org/2000/svg"
 width="300.000000pt" height="300.000000pt" viewBox="0 0 300.000000 300.000000"
 preserveAspectRatio="xMidYMid meet">
<metadata>
Created by potrace 1.10, written by Peter Selinger 2001-2011
</metadata>
<g transform="translate(0.000000,300.000000) scale(0.100000,-0.100000)"
fill="#FFFFFF" stroke="none">
<path d="M1285 2955 c-130 -21 -235 -51 -353 -101 -446 -191 -762 -575 -864
-1049 -20 -94 -23 -138 -23 -300 1 -261 36 -421 140 -639 106 -220 300 -446
495 -575 246 -163 475 -237 765 -248 226 -9 409 21 600 98 463 186 791 579
896 1074 34 158 34 422 0 580 -124 583 -561 1022 -1143 1146 -126 27 -388 34
-513 14z m401 -246 c206 -63 377 -236 429 -435 9 -34 15 -101 15 -162 0 -171
-58 -311 -180 -432 -111 -111 -236 -164 -421 -181 -65 -5 -144 -16 -176 -25
-336 -85 -530 -447 -418 -780 73 -217 245 -363 482 -408 l78 -15 -80 5 c-515
34 -965 419 -1096 939 -27 103 -37 349 -20 465 27 185 115 400 223 545 180
241 462 423 743 478 111 22 126 24 246 26 83 1 122 -4 175 -20z"/>
</g>
</svg>
